<?xml version="1.0" standalone="no"?>
<!DOCTYPE svg PUBLIC "-//W3C//DTD SVG 20010904//EN"
 "http://www.w3.org/TR/2001/REC-SVG-20010904/DTD/svg10.dtd">
<svg version="1.0" xmlns="http://www.w3.org/2000/svg"
 width="512.000000pt" height="512.000000pt" viewBox="0 0 512.000000 512.000000"
 preserveAspectRatio="xMidYMid meet">
<metadata>
Created by potrace 1.14, written by Peter Selinger 2001-2017
</metadata>
<g transform="translate(0.000000,512.000000) scale(0.100000,-0.100000)"
fill="#000000" stroke="none">
<path d="M0 2560 l0 -2560 2560 0 2560 0 0 2560 0 2560 -2560 0 -2560 0 0
-2560z m1081 486 c162 -9 331 -69 425 -150 97 -83 161 -229 171 -388 l6 -88
-543 0 -542 0 6 -32 c15 -77 94 -152 199 -188 167 -59 388 -49 645 27 48 14
95 28 105 30 15 5 17 -4 17 -101 l0 -106 -27 -11 c-123 -47 -296 -72 -508 -72
-330 0 -550 66 -690 207 -187 187 -180 495 14 686 78 77 153 119 276 155 85
25 257 45 330 38 17 -1 69 -4 116 -7z m3249 -8 c252 -35 475 -168 555 -332 89
-181 55 -377 -91 -522 -187 -187 -584 -267 -959 -193 -434 87 -647 398 -490
716 128 260 528 395 985 331z m-2018 -388 c106 -209 195 -380 199 -380 3 0 89
171 191 380 l187 380 200 0 c111 0 201 -3 201 -7 0 -4 -127 -237 -282 -520
l-283 -513 -235 3 -234 2 -273 490 c-149 270 -279 502 -288 518 l-16 27 220 0
219 0 194 -380z"/>
<path d="M861 2849 c-113 -20 -197 -74 -236 -152 -47 -94 -73 -87 320 -87
l345 0 0 23 c0 39 -47 123 -83 151 -78 59 -224 87 -346 65z"/>
<path d="M4040 2839 c-120 -14 -215 -64 -268 -142 -44 -63 -55 -109 -50 -198
5 -91 48 -190 101 -235 84 -71 227 -104 368 -85 146 20 236 79 288 190 22 48
26 70 26 151 0 88 -2 99 -31 150 -72 128 -235 192 -434 169z"/>
</g>
</svg>
